:SAMPLES-PER-SECOND 30
:FULLY-SPECIFIED
:DEGREES
165
root  -34.812 41.4599 -42.7253 -179.513 5.11755 -179.997
RightUpLeg  -3.62042 -6.71574 -4.93583
RightLeg  1.57083 2.61143 2.55822
RightFoot  2.30695 -0.0512173 0.559898
RightToes  2.32829e-010 0 -3.6325e-017
Spine  3.31443 -0.494003 1.80313
Spine1  -4.28676 -0.409119 -0.688349
HEad  -5.56294 5.11686 -0.789078
LeftShoulder1  0.203288 1.65274 -2.67176
LeftArm  -9.87416 12.3578 -1.75695
LeftForeArm  14.1702 -3.87099 -4.32166
LeftHand  -0.244104 0.0205437 5.32207
RightShoulder  0.0302948 -3.16572 0.635998
RightArm  -14.1886 -1.84537 -0.246385
RightForeArm  -0.455546 1.07628 4.98262
RightHand  -0.83986 2.59022 -12.3972
LeftUpLeg  -1.26308 3.30354 -0.0434303
LeftLeg  1.78978 8.34967 -3.83426
LeftFoot  -1.47629 -0.231065 2.8129
LeftToes  -2.63786e-011 3.77076e-011 -4.2586e-012
166
root  -34.7033 41.4685 -42.7714 -179.118 5.14168 -179.992
RightUpLeg  -3.90224 -6.56985 -4.70915
RightLeg  1.42346 2.40031 2.55165
RightFoot  2.43836 -0.00921767 0.213704
RightToes  2.32829e-010 0 -3.6325e-017
Spine  3.30145 -0.426583 1.67759
Spine1  -4.4638 -0.33676 -0.715355
HEad  -5.4406 5.12032 -0.659438
LeftShoulder1  0.249085 1.36084 -3.42241
LeftArm  -9.48187 12.0527 -1.21851
LeftForeArm  13.5741 -3.53213 -4.4888
LeftHand  -0.244104 0.0205437 5.32207
RightShoulder  0.0605673 -2.87935 1.47181
RightArm  -13.5241 -1.87245 -0.305545
RightForeArm  -0.588814 1.25853 5.20397
RightHand  -0.813339 2.3344 -12.3931
LeftUpLeg  -1.57581 3.26489 0.0735912
LeftLeg  1.73453 8.39092 -3.75429
LeftFoot  -1.50289 -0.214066 2.58069
LeftToes  -2.63786e-011 3.77076e-011 -4.2586e-012
167
root  -34.6032 41.4753 -42.8275 -178.85 5.19376 179.977
RightUpLeg  -4.10248 -6.48013 -4.55768
RightLeg  1.40393 2.31919 2.55894
RightFoot  2.41157 0.0285876 -0.100471
RightToes  2.32829e-010 0 -3.6325e-017
Spine  3.24406 -0.365329 1.28902
Spine1  -4.49288 -0.331576 -0.3315
HEad  -5.22529 5.22426 -0.830238
LeftShoulder1  0.271149 1.27599 -4.04321
LeftArm  -9.48057 12.0228 -0.70799
LeftForeArm  13.2801 -3.476 -4.47689
LeftHand  -0.244104 0.0205437 5.32207
RightShoulder  0.0772466 -2.73457 1.83493
RightArm  -13.212 -1.78899 -0.191957
RightForeArm  -0.179226 1.24681 5.26974
RightHand  -0.804896 2.21252 -12.4545
LeftUpLeg  -1.71023 3.26147 0.161974
LeftLeg  1.62798 8.41064 -3.72895
LeftFoot  -1.51741 -0.208247 2.47771
LeftToes  -2.63786e-011 3.77076e-011 -4.2586e-012
168
root  -34.5175 41.481 -42.8918 -178.688 5.21791 179.936
RightUpLeg  -4.20375 -6.4835 -4.49246
RightLeg  1.45606 2.36299 2.62065
RightFoot  2.35664 0.0439853 -0.232107
RightToes  2.32829e-010 0 -3.6325e-017
Spine  3.08064 -0.35353 0.927325
Spine1  -4.31006 -0.366069 -0.0166801
HEad  -4.94022 5.38066 -1.11389
LeftShoulder1  0.256711 1.41226 -4.1318
LeftArm  -9.77667 12.0944 -0.548091
LeftForeArm  13.2859 -3.58995 -4.34915
LeftHand  -0.244104 0.0205437 5.32207
RightShoulder  0.0926323 -2.6146 2.25519
RightArm  -13.1725 -1.55628 -0.283098
RightForeArm  0.564551 0.990571 5.23071
RightHand  -0.847246 2.50613 -12.6281
LeftUpLeg  -1.70599 3.34354 0.26165
LeftLeg  1.50348 8.33519 -3.80336
LeftFoot  -1.49909 -0.216875 2.59096
LeftToes  -2.63786e-011 3.77076e-011 -4.2586e-012
169
root  -34.4427 41.4845 -42.9636 -178.567 5.18709 179.933
RightUpLeg  -4.23568 -6.4774 -4.41912
RightLeg  1.52702 2.32086 2.67554
RightFoot  2.27935 0.0469384 -0.265414
RightToes  2.32829e-010 0 -3.6325e-017
Spine  2.87901 -0.368354 0.868143
Spine1  -4.16131 -0.365541 -0.125242
HEad  -4.4242 5.43517 -1.17347
LeftShoulder1  0.235302 1.5275 -3.71784
LeftArm  -10.0046 12.1789 -0.632653
LeftForeArm  13.152 -3.7889 -4.27509
LeftHand  -0.244104 0.0205437 5.32207
RightShoulder  0.105259 -2.54408 2.88856
RightArm  -13.1954 -1.39226 -0.629056
RightForeArm  0.975349 0.773446 5.19627
RightHand  -0.925762 3.02275 -12.9632
LeftUpLeg  -1.70427 3.392 0.356587
LeftLeg  1.48662 8.2552 -3.80554
LeftFoot  -1.51899 -0.222517 2.69861
LeftToes  -2.63786e-011 3.77076e-011 -4.2586e-012
170
root  -34.3736 41.4856 -43.0336 -178.506 5.13136 179.973
RightUpLeg  -4.16485 -6.40176 -4.28932
RightLeg  1.54246 2.13121 2.6779
RightFoot  2.14406 0.0506413 -0.322921
RightToes  2.32829e-010 0 -3.6325e-017
Spine  2.81393 -0.361835 0.942926
Spine1  -4.25028 -0.335627 -0.289988
HEad  -3.66075 5.41657 -1.10897
LeftShoulder1  0.23831 1.44965 -3.38508
LeftArm  -9.90699 12.2913 -0.555846
LeftForeArm  12.876 -4.01969 -4.33225
LeftHand  -0.244104 0.0205437 5.32207
RightShoulder  0.106302 -2.5635 3.26341
RightArm  -13.2147 -1.47434 -0.862523
RightForeArm  0.922547 0.888855 5.1902
RightHand  -0.951193 3.131 -13.1492
LeftUpLeg  -1.71345 3.30934 0.4167
LeftLeg  1.60772 8.2651 -3.6112
LeftFoot  -1.64252 -0.204539 2.52714
LeftToes  -2.63786e-011 3.77076e-011 -4.2586e-012
171
root  -34.3126 41.486 -43.0959 -178.543 5.12695 -179.994
RightUpLeg  -4.00707 -6.32817 -4.16739
RightLeg  1.5355 2.00768 2.66315
RightFoot  2.008 0.0567761 -0.418201
RightToes  2.32829e-010 0 -3.6325e-017
Spine  2.83689 -0.324853 0.876966
Spine1  -4.35987 -0.325684 -0.110201
HEad  -2.90788 5.49738 -1.20464
LeftShoulder1  0.253819 1.32822 -3.47156
LeftArm  -9.67312 12.3851 -0.224783
LeftForeArm  12.9176 -4.21833 -4.41823
LeftHand  -0.244104 0.0205437 5.32207
RightShoulder  0.104579 -2.57205 3.1748
RightArm  -13.2247 -1.65876 -0.8572
RightForeArm  0.767145 1.18482 5.19248
RightHand  -0.889747 2.67453 -12.9826
LeftUpLeg  -1.62812 3.2258 0.473165
LeftLeg  1.73874 8.30974 -3.40857
LeftFoot  -1.82486 -0.170094 2.1759
LeftToes  -2.63786e-011 3.77076e-011 -4.2586e-012
172
root  -34.2652 41.4854 -43.1585 -178.636 5.19003 179.996
RightUpLeg  -3.85856 -6.3313 -4.12487
RightLeg  1.6359 2.07881 2.67316
RightFoot  1.8804 0.0625677 -0.508156
RightToes  2.32829e-010 0 -3.6325e-017
Spine  2.7116 -0.290375 0.742994
Spine1  -4.16181 -0.333446 0.174935
HEad  -2.39133 5.65262 -1.35972
LeftShoulder1  0.253215 1.36877 -3.6828
LeftArm  -9.6705 12.3542 0.017179
LeftForeArm  13.4055 -4.31696 -4.40255
LeftHand  -0.244104 0.0205437 5.32207
RightShoulder  0.113584 -2.48395 3.07199
RightArm  -13.1991 -1.64173 -0.903848
RightForeArm  0.735377 1.24137 5.20339
RightHand  -0.828198 2.2402 -12.7636
LeftUpLeg  -1.44214 3.29437 0.557931
LeftLeg  1.81358 8.28593 -3.41106
LeftFoot  -1.98705 -0.153242 2.01982
LeftToes  -2.63786e-011 3.77076e-011 -4.2586e-012
173
root  -34.2313 41.483 -43.2289 -178.733 5.23811 179.965
RightUpLeg  -3.74869 -6.37833 -4.1396
RightLeg  1.86289 2.18631 2.69576
RightFoot  1.68256 0.0671162 -0.578808
RightToes  2.32829e-010 0 -3.6325e-017
Spine  2.43478 -0.287852 0.791179
Spine1  -3.74248 -0.326655 0.136418
HEad  -2.05502 5.77417 -1.29411
LeftShoulder1  0.235477 1.52006 -3.67466
LeftArm  -9.88874 12.1803 -0.0611754
LeftForeArm  13.9207 -4.28279 -4.31755
LeftHand  -0.244104 0.0205437 5.32207
RightShoulder  0.121749 -2.42858 3.29009
RightArm  -13.1695 -1.3605 -1.11906
RightForeArm  0.777258 1.03462 5.22366
RightHand  -0.831704 2.25279 -12.7948
LeftUpLeg  -1.25415 3.42515 0.628622
LeftLeg  1.91286 8.20732 -3.50289
LeftFoot  -2.12119 -0.161844 2.17053
LeftToes  -2.63786e-011 3.77076e-011 -4.2586e-012
174
root  -34.2068 41.4796 -43.3 -178.831 5.22101 179.957
RightUpLeg  -3.61394 -6.39486 -4.14222
RightLeg  2.07229 2.17357 2.69837
RightFoot  1.43754 0.0708323 -0.636535
RightToes  2.32829e-010 0 -3.6325e-017
Spine  2.26732 -0.308698 1.0443
Spine1  -3.47632 -0.300153 -0.193333
HEad  -1.70394 5.83117 -1.041
LeftShoulder1  0.221465 1.61499 -3.50307
LeftArm  -9.97436 11.9727 -0.307742
LeftForeArm  14.1129 -4.14607 -4.30095
LeftHand  -0.244104 0.0205437 5.32207
RightShoulder  0.106932 -2.58056 3.57873
RightArm  -13.241 -1.01333 -1.21741
RightForeArm  0.861405 0.946565 5.22647
RightHand  -0.864186 2.46487 -12.9411
LeftUpLeg  -1.09497 3.45404 0.643431
LeftLeg  2.05192 8.15925 -3.47218
LeftFoot  -2.25287 -0.170446 2.33265
LeftToes  -2.63786e-011 3.77076e-011 -4.2586e-012
